<?xml version="1.0" standalone="no"?>
<!DOCTYPE svg PUBLIC "-//W3C//DTD SVG 20010904//EN"
 "http://www.w3.org/TR/2001/REC-SVG-20010904/DTD/svg10.dtd">
<svg version="1.0" xmlns="http://www.w3.org/2000/svg"
 width="300.000000pt" height="300.000000pt" viewBox="0 0 300.000000 300.000000"
 preserveAspectRatio="xMidYMid meet">
<metadata>
Created by potrace 1.14, written by Peter Selinger 2001-2017
</metadata>
<g transform="translate(0.000000,300.000000) scale(0.100000,-0.100000)"
fill="#000000" stroke="none">
<path d="M1332 2790 c-549 -78 -984 -480 -1103 -1020 -31 -138 -33 -389 -5
-520 55 -253 163 -462 333 -641 188 -197 409 -322 673 -380 138 -31 389 -33
520 -5 253 55 462 163 641 333 197 188 322 409 380 673 31 138 33 389 5 520
-55 253 -163 462 -333 641 -184 193 -399 317 -653 375 -118 28 -348 40 -458
24z m911 -895 c74 -37 159 -126 197 -207 110 -235 21 -529 -195 -642 -57 -29
-66 -31 -175 -31 -112 0 -117 1 -177 34 -147 80 -243 244 -243 417 0 138 38
242 122 330 97 103 176 135 318 131 81 -3 104 -7 153 -32z m-1320 -273 c50
-160 94 -289 98 -285 3 5 44 137 90 295 l84 288 167 0 c100 0 169 -4 173 -10
4 -6 -12 -10 -42 -10 -28 0 -58 -7 -71 -16 l-22 -15 0 -399 c0 -456 -5 -430
86 -430 30 0 54 -4 54 -10 0 -6 -85 -10 -235 -10 -150 0 -235 4 -235 10 0 6
26 10 59 10 37 0 63 5 70 14 8 9 10 122 9 397 l-3 384 -42 -130 c-23 -71 -76
-249 -118 -395 -42 -146 -80 -269 -86 -275 -7 -7 -13 -5 -20 5 -5 8 -59 168
-120 355 -61 187 -116 356 -122 375 -10 28 -13 -34 -15 -330 -2 -362 -2 -365
19 -382 12 -10 38 -18 60 -18 21 0 41 -4 44 -10 4 -6 -47 -10 -144 -10 -94 0
-151 4 -151 10 0 6 22 10 49 10 85 0 81 -22 81 421 0 231 -4 398 -10 408 -6
12 -26 21 -60 25 -27 4 -50 11 -50 17 0 6 58 8 156 7 l156 -3 91 -293z"/>
<path d="M1998 1885 c-75 -51 -118 -192 -118 -390 0 -134 12 -220 41 -308 39
-117 89 -163 172 -160 74 3 111 50 144 180 27 106 24 420 -5 527 -12 43 -31
94 -43 113 -40 64 -127 81 -191 38z"/>
</g>
</svg>
