<svg width="286" height="282" viewBox="0 0 286 282" fill="none" xmlns="http://www.w3.org/2000/svg">
<path d="M172.482 6.15417C164.164 6.15417 157.397 12.9212 157.397 21.239C157.397 29.5568 164.161 36.3233 172.482 36.3233C180.803 36.3233 187.567 29.5568 187.567 21.239C187.567 12.9212 180.8 6.15417 172.482 6.15417Z" fill="#212427"/>
<path d="M221.304 6.15417C212.986 6.15417 206.219 12.9212 206.219 21.239C206.219 29.5568 212.986 36.3233 221.304 36.3233C229.622 36.3233 236.39 29.5568 236.39 21.239C236.39 12.9212 229.625 6.15417 221.304 6.15417Z" fill="#212427"/>
<path d="M270.915 36.3238C279.232 36.3238 286 29.5573 286 21.2394C286 12.9216 279.237 6.15417 270.915 6.15417C262.593 6.15417 255.83 12.9212 255.83 21.239C255.83 29.5568 262.598 36.3238 270.915 36.3238Z" fill="#212427"/>
<path d="M172.088 84.6602C180.405 84.6602 187.174 77.895 187.174 69.5758C187.174 61.2562 180.405 54.4896 172.088 54.4896C163.77 54.4896 157 61.2566 157 69.5758C157 77.895 163.77 84.6602 172.088 84.6602Z" fill="#212427"/>
<path d="M220.909 84.6602C229.226 84.6602 235.994 77.895 235.994 69.5758C235.994 61.2562 229.231 54.4896 220.909 54.4896C212.589 54.4896 205.824 61.2562 205.824 69.5758C205.824 77.895 212.591 84.6602 220.909 84.6602Z" fill="#212427"/>
<path d="M270.525 84.6602C278.845 84.6602 285.61 77.895 285.61 69.5758C285.61 61.2562 278.845 54.4896 270.525 54.4896C262.206 54.4896 255.435 61.2562 255.435 69.5758C255.435 77.895 262.203 84.6602 270.525 84.6602Z" fill="#212427"/>
<path d="M172.433 102.676C164.115 102.676 157.345 109.441 157.345 117.761C157.345 126.077 164.115 132.845 172.433 132.845C180.751 132.845 187.517 126.081 187.517 117.761C187.517 109.441 180.751 102.676 172.433 102.676Z" fill="#212427"/>
<path d="M221.257 102.676C212.939 102.676 206.17 109.441 206.17 117.761C206.17 126.077 212.937 132.845 221.257 132.845C229.574 132.845 236.342 126.081 236.342 117.761C236.342 109.441 229.574 102.676 221.257 102.676Z" fill="#212427"/>
<path d="M270.868 102.676C262.551 102.676 255.783 109.441 255.783 117.761C255.783 126.077 262.551 132.845 270.868 132.845C279.187 132.845 285.952 126.081 285.952 117.761C285.952 109.441 279.184 102.676 270.868 102.676Z" fill="#212427"/>
<path d="M20.4818 154.154C12.1635 154.154 5.39697 160.921 5.39697 169.239C5.39697 177.557 12.1607 184.323 20.4818 184.323C28.8029 184.323 35.5666 177.557 35.5666 169.239C35.5666 160.921 28.7996 154.154 20.4818 154.154Z" fill="#212427"/>
<path d="M69.3036 154.154C60.9858 154.154 54.2188 160.921 54.2188 169.239C54.2188 177.557 60.9858 184.323 69.3036 184.323C77.6218 184.323 84.3898 177.557 84.3898 169.239C84.3898 160.921 77.6246 154.154 69.3036 154.154Z" fill="#212427"/>
<path d="M118.915 184.324C127.232 184.324 134 177.557 134 169.239C134 160.922 127.237 154.154 118.915 154.154C110.593 154.154 103.83 160.921 103.83 169.239C103.83 177.557 110.598 184.324 118.915 184.324Z" fill="#212427"/>
<path d="M20.0876 232.66C28.4054 232.66 35.1738 225.895 35.1738 217.576C35.1738 209.256 28.4054 202.49 20.0876 202.49C11.7698 202.49 5 209.257 5 217.576C5 225.895 11.7698 232.66 20.0876 232.66Z" fill="#212427"/>
<path d="M68.9093 232.66C77.2257 232.66 83.9941 225.895 83.9941 217.576C83.9941 209.256 77.2313 202.49 68.9093 202.49C60.5887 202.49 53.8245 209.256 53.8245 217.576C53.8245 225.895 60.5915 232.66 68.9093 232.66Z" fill="#212427"/>
<path d="M118.525 232.66C126.845 232.66 133.61 225.895 133.61 217.576C133.61 209.256 126.845 202.49 118.525 202.49C110.206 202.49 103.435 209.256 103.435 217.576C103.435 225.895 110.203 232.66 118.525 232.66Z" fill="#212427"/>
<path d="M20.4328 250.676C12.115 250.676 5.34521 257.441 5.34521 265.761C5.34521 274.077 12.115 280.845 20.4328 280.845C28.7506 280.845 35.5172 274.081 35.5172 265.761C35.5172 257.441 28.7506 250.676 20.4328 250.676Z" fill="#212427"/>
<path d="M69.2573 250.676C60.939 250.676 54.1697 257.441 54.1697 265.761C54.1697 274.077 60.9367 280.845 69.2573 280.845C77.5737 280.845 84.3416 274.081 84.3416 265.761C84.3416 257.441 77.5737 250.676 69.2573 250.676Z" fill="#212427"/>
<path d="M118.868 250.676C110.551 250.676 103.783 257.441 103.783 265.761C103.783 274.077 110.551 280.845 118.868 280.845C127.187 280.845 133.952 274.081 133.952 265.761C133.952 257.441 127.184 250.676 118.868 250.676Z" fill="#212427"/>
<path d="M172.482 154.154C164.164 154.154 157.397 160.921 157.397 169.239C157.397 177.557 164.161 184.323 172.482 184.323C180.803 184.323 187.567 177.557 187.567 169.239C187.567 160.921 180.8 154.154 172.482 154.154Z" fill="#212427"/>
<path d="M221.304 154.154C212.986 154.154 206.219 160.921 206.219 169.239C206.219 177.557 212.986 184.323 221.304 184.323C229.622 184.323 236.39 177.557 236.39 169.239C236.39 160.921 229.625 154.154 221.304 154.154Z" fill="#212427"/>
<path d="M270.915 184.324C279.232 184.324 286 177.557 286 169.239C286 160.922 279.237 154.154 270.915 154.154C262.593 154.154 255.83 160.921 255.83 169.239C255.83 177.557 262.598 184.324 270.915 184.324Z" fill="#212427"/>
<path d="M172.088 232.66C180.405 232.66 187.174 225.895 187.174 217.576C187.174 209.256 180.405 202.49 172.088 202.49C163.77 202.49 157 209.257 157 217.576C157 225.895 163.77 232.66 172.088 232.66Z" fill="#212427"/>
<path d="M220.909 232.66C229.226 232.66 235.994 225.895 235.994 217.576C235.994 209.256 229.231 202.49 220.909 202.49C212.589 202.49 205.824 209.256 205.824 217.576C205.824 225.895 212.591 232.66 220.909 232.66Z" fill="#212427"/>
<path d="M270.525 232.66C278.845 232.66 285.61 225.895 285.61 217.576C285.61 209.256 278.845 202.49 270.525 202.49C262.206 202.49 255.435 209.256 255.435 217.576C255.435 225.895 262.203 232.66 270.525 232.66Z" fill="#212427"/>
<path d="M172.433 250.676C164.115 250.676 157.345 257.441 157.345 265.761C157.345 274.077 164.115 280.845 172.433 280.845C180.751 280.845 187.517 274.081 187.517 265.761C187.517 257.441 180.751 250.676 172.433 250.676Z" fill="#212427"/>
<path d="M221.257 250.676C212.939 250.676 206.17 257.441 206.17 265.761C206.17 274.077 212.937 280.845 221.257 280.845C229.574 280.845 236.342 274.081 236.342 265.761C236.342 257.441 229.574 250.676 221.257 250.676Z" fill="#212427"/>
<path d="M270.868 250.676C262.551 250.676 255.783 257.441 255.783 265.761C255.783 274.077 262.551 280.845 270.868 280.845C279.187 280.845 285.952 274.081 285.952 265.761C285.952 257.441 279.184 250.676 270.868 250.676Z" fill="#212427"/>
<path d="M20.4818 6.15417C12.1635 6.15417 5.39697 12.9212 5.39697 21.239C5.39697 29.5568 12.1607 36.3233 20.4818 36.3233C28.8029 36.3233 35.5666 29.5568 35.5666 21.239C35.5666 12.9212 28.7996 6.15417 20.4818 6.15417Z" fill="#212427"/>
<path d="M69.3036 6.15417C60.9858 6.15417 54.2188 12.9212 54.2188 21.239C54.2188 29.5568 60.9858 36.3233 69.3036 36.3233C77.6218 36.3233 84.3898 29.5568 84.3898 21.239C84.3898 12.9212 77.6246 6.15417 69.3036 6.15417Z" fill="#212427"/>
<path d="M118.915 36.3238C127.232 36.3238 134 29.5573 134 21.2394C134 12.9216 127.237 6.15417 118.915 6.15417C110.593 6.15417 103.83 12.9212 103.83 21.239C103.83 29.5568 110.598 36.3238 118.915 36.3238Z" fill="#212427"/>
<path d="M20.0876 84.6602C28.4054 84.6602 35.1738 77.895 35.1738 69.5758C35.1738 61.2562 28.4054 54.4896 20.0876 54.4896C11.7698 54.4896 5 61.2566 5 69.5758C5 77.895 11.7698 84.6602 20.0876 84.6602Z" fill="#212427"/>
<path d="M68.9093 84.6602C77.2257 84.6602 83.9941 77.895 83.9941 69.5758C83.9941 61.2562 77.2313 54.4896 68.9093 54.4896C60.5887 54.4896 53.8245 61.2562 53.8245 69.5758C53.8245 77.895 60.5915 84.6602 68.9093 84.6602Z" fill="#212427"/>
<path d="M118.525 84.6602C126.845 84.6602 133.61 77.895 133.61 69.5758C133.61 61.2562 126.845 54.4896 118.525 54.4896C110.206 54.4896 103.435 61.2562 103.435 69.5758C103.435 77.895 110.203 84.6602 118.525 84.6602Z" fill="#212427"/>
<path d="M20.4328 102.676C12.115 102.676 5.34521 109.441 5.34521 117.761C5.34521 126.077 12.115 132.845 20.4328 132.845C28.7506 132.845 35.5172 126.081 35.5172 117.761C35.5172 109.441 28.7506 102.676 20.4328 102.676Z" fill="#212427"/>
<path d="M69.2573 102.676C60.939 102.676 54.1697 109.441 54.1697 117.761C54.1697 126.077 60.9367 132.845 69.2573 132.845C77.5737 132.845 84.3416 126.081 84.3416 117.761C84.3416 109.441 77.5737 102.676 69.2573 102.676Z" fill="#212427"/>
<path d="M118.868 102.676C110.551 102.676 103.783 109.441 103.783 117.761C103.783 126.077 110.551 132.845 118.868 132.845C127.187 132.845 133.952 126.081 133.952 117.761C133.952 109.441 127.184 102.676 118.868 102.676Z" fill="#212427"/>
</svg>
